<?xml version="1.0" encoding="UTF-8"?>
<!DOCTYPE svg PUBLIC "-//W3C//DTD SVG 1.1//EN" "http://www.w3.org/Graphics/SVG/1.1/DTD/svg11.dtd">
<svg xmlns="http://www.w3.org/2000/svg" version="1.1" width="2118px" height="1376px" style="shape-rendering:geometricPrecision; text-rendering:geometricPrecision; image-rendering:optimizeQuality; fill-rule:evenodd; clip-rule:evenodd" xmlns:xlink="http://www.w3.org/1999/xlink">
<g><path style="opacity:0.985" fill="#2d2f2e" d="M 1032.5,-0.5 C 1049.5,-0.5 1066.5,-0.5 1083.5,-0.5C 1267.07,8.89025 1423.57,78.2236 1553,207.5C 1697.97,361.05 1761.97,543.717 1745,755.5C 1722.11,950.181 1634.61,1108.35 1482.5,1230C 1359.67,1323.89 1220.67,1372.39 1065.5,1375.5C 1060.5,1375.5 1055.5,1375.5 1050.5,1375.5C 862.01,1370.31 700.843,1301.97 567,1170.5C 424.977,1022.16 359.31,844.828 370,638.5C 380.117,506.779 423.784,387.779 501,281.5C 511.342,269.781 523.509,267.447 537.5,274.5C 541.376,278.552 544.542,283.219 547,288.5C 547.804,294.569 547.471,300.569 546,306.5C 433.852,461.809 396.519,633.809 434,822.5C 478.444,1008.54 583.277,1149.04 748.5,1244C 823.043,1285.35 902.71,1310.51 987.5,1319.5C 1177.9,1337.19 1344.57,1283.36 1487.5,1158C 1623.31,1031.16 1692.98,874.329 1696.5,687.5C 1693.15,498.348 1622.15,340.181 1483.5,213C 1341.74,90.8086 1177.07,37.9753 989.5,54.5C 862.239,69.0576 749.239,116.558 650.5,197C 638.301,202.017 627.635,199.851 618.5,190.5C 612.455,180.848 611.955,170.848 617,160.5C 618.458,158.04 620.291,155.873 622.5,154C 742.08,58.2912 878.746,6.79123 1032.5,-0.5 Z"/></g>
<g><path style="opacity:0.994" fill="#d3e0f3" d="M 989.5,54.5 C 900.546,82.6275 820.879,126.794 750.5,187C 745.041,191.389 740.041,196.222 735.5,201.5C 734.833,201.5 734.5,201.833 734.5,202.5C 605.78,290.815 523.946,411.481 489,564.5C 479.712,607.333 475.712,650.666 477,694.5C 484.129,711.257 496.295,716.423 513.5,710C 516.047,707.946 518.714,706.113 521.5,704.5C 528.6,884.478 595.934,1037.31 723.5,1163C 799.469,1234.84 887.469,1287.01 987.5,1319.5C 902.71,1310.51 823.043,1285.35 748.5,1244C 583.277,1149.04 478.444,1008.54 434,822.5C 396.519,633.809 433.852,461.809 546,306.5C 547.471,300.569 547.804,294.569 547,288.5C 544.542,283.219 541.376,278.552 537.5,274.5C 562.427,244.572 589.427,216.572 618.5,190.5C 627.635,199.851 638.301,202.017 650.5,197C 749.239,116.558 862.239,69.0576 989.5,54.5 Z"/></g>
<g><path style="opacity:0.974" fill="#2c2f2d" d="M 866.5,135.5 C 887.434,136.705 896.601,147.705 894,168.5C 891.687,176.816 886.52,182.649 878.5,186C 861.177,192.219 844.177,199.219 827.5,207C 804.561,208.393 794.061,197.56 796,174.5C 797.922,168.475 801.422,163.641 806.5,160C 826.045,150.383 846.045,142.217 866.5,135.5 Z"/></g>
<g><path style="opacity:0.99" fill="#2d2f2e" d="M 521.5,704.5 C 518.714,706.113 516.047,707.946 513.5,710C 496.295,716.423 484.129,711.257 477,694.5C 475.712,650.666 479.712,607.333 489,564.5C 523.946,411.481 605.78,290.815 734.5,202.5C 735.167,202.5 735.5,202.167 735.5,201.5C 755.314,198.98 766.314,207.647 768.5,227.5C 768.79,236.087 765.456,242.921 758.5,248C 644.8,328.114 571.967,436.281 540,572.5C 531.578,612.052 527.245,652.052 527,692.5C 525.963,696.905 524.129,700.905 521.5,704.5 Z"/></g>
<g><path style="opacity:0.978" fill="#f26522" d="M 76.5,324.5 C 80.9152,324.305 85.2486,324.805 89.5,326C 145.984,345.272 202.317,364.939 258.5,385C 270.955,396.269 272.788,409.102 264,423.5C 257.012,430.709 248.512,433.542 238.5,432C 180.123,412.653 122.123,392.319 64.5,371C 52.1426,356.482 52.8092,342.482 66.5,329C 69.8153,327.17 73.1486,325.67 76.5,324.5 Z"/></g>
<g><path style="opacity:0.978" fill="#f26522" d="M 2041.5,354.5 C 2061.79,355.616 2071.29,366.283 2070,386.5C 2067.77,394.134 2063.27,399.967 2056.5,404C 1999.62,422.071 1942.62,439.737 1885.5,457C 1866.81,458.312 1856.81,449.645 1855.5,431C 1856,419.334 1861.67,411.334 1872.5,407C 1928.98,389.559 1985.31,372.059 2041.5,354.5 Z"/></g>
<g><path style="opacity:0.979" fill="#f26522" d="M 1277.5,533.5 C 1299.97,533.133 1310.13,544.133 1308,566.5C 1306.86,570.112 1305.19,573.446 1303,576.5C 1196.93,663.12 1090.76,749.62 984.5,836C 974.728,841.606 964.728,841.939 954.5,837C 952.04,835.542 949.873,833.709 948,831.5C 905.237,780.981 862.237,730.647 819,680.5C 812.361,674.056 808.528,666.222 807.5,657C 808.859,640.64 817.692,632.14 834,631.5C 840.174,631.336 845.674,633.169 850.5,637C 889,682.167 927.5,727.333 966,772.5C 968.016,774.684 970.183,776.684 972.5,778.5C 1071.35,697.811 1170.35,617.311 1269.5,537C 1272.31,535.907 1274.98,534.74 1277.5,533.5 Z"/></g>
<g><path style="opacity:0.977" fill="#f26522" d="M -0.5,692.5 C -0.5,688.833 -0.5,685.167 -0.5,681.5C 2.3191,671.182 8.98577,664.682 19.5,662C 76.1667,661.333 132.833,661.333 189.5,662C 209.429,670.548 214.263,684.381 204,703.5C 199.533,709.151 193.699,712.317 186.5,713C 131.833,713.667 77.1667,713.667 22.5,713C 9.90561,711.567 2.23895,704.734 -0.5,692.5 Z"/></g>
<g><path style="opacity:0.977" fill="#f26522" d="M 2117.5,684.5 C 2117.5,686.5 2117.5,688.5 2117.5,690.5C 2115.34,703.488 2107.68,710.988 2094.5,713C 2039.83,713.667 1985.17,713.667 1930.5,713C 1912.55,709.641 1905.05,698.808 1908,680.5C 1910.94,670.557 1917.44,664.391 1927.5,662C 1984.17,661.333 2040.83,661.333 2097.5,662C 2109.32,664.987 2115.99,672.487 2117.5,684.5 Z"/></g>
<g><path style="opacity:0.979" fill="#f26522" d="M 228.5,917.5 C 248.335,915.005 259.335,923.671 261.5,943.5C 261.268,954.794 255.935,962.628 245.5,967C 189.894,984.535 134.228,1001.87 78.5,1019C 58.6446,1021.57 47.6446,1012.91 45.5,993C 46.3955,982.198 51.7288,974.532 61.5,970C 117.426,952.942 173.093,935.442 228.5,917.5 Z"/></g>
<g><path style="opacity:0.979" fill="#f26522" d="M 1865.5,942.5 C 1870.18,942.334 1874.85,942.501 1879.5,943C 1934.91,961.803 1990.24,980.803 2045.5,1000C 2059.55,1007.13 2064.05,1018.3 2059,1033.5C 2053.01,1046.74 2042.85,1051.91 2028.5,1049C 1972.5,1029.67 1916.5,1010.33 1860.5,991C 1846.88,981.283 1843.71,968.783 1851,953.5C 1854.91,948.404 1859.74,944.738 1865.5,942.5 Z"/></g>
</svg>
